<svg xmlns="http://www.w3.org/2000/svg" viewBox="0 0 490.19 91"><defs><style>.cls-1{fill:#fff;}.cls-2{fill:none;stroke:#f8fbff;stroke-miterlimit:10;stroke-width:2px;}</style></defs><g id="Capa_2" data-name="Capa 2"><g id="Capa_1-2" data-name="Capa 1"><polygon class="cls-1" points="18.87 87.95 0 69.08 0 21.91 18.87 3.05 18.87 87.95"/><rect class="cls-1" x="47.17" y="23.8" width="18.87" height="43.4"/><polygon class="cls-1" points="107.53 69.08 88.67 87.95 88.67 23.8 107.53 23.8 107.53 69.08"/><polygon class="cls-1" points="150.94 69.09 132.07 87.95 132.07 59.65 150.94 40.78 150.94 69.09"/><polygon class="cls-1" points="198.1 40.78 179.24 59.65 179.24 23.8 198.1 23.8 198.1 40.78"/><polygon class="cls-1" points="47.17 87.95 20.75 87.95 20.75 69.08 66.03 69.08 47.17 87.95"/><polygon class="cls-1" points="84.9 21.91 47.17 21.91 66.03 3.05 103.77 3.05 84.9 21.91"/><polygon class="cls-1" points="126.4 21.91 88.67 21.91 107.53 3.05 145.27 3.05 126.4 21.91"/><polygon class="cls-1" points="198.1 21.91 130.18 21.91 149.04 3.05 179.24 3.05 198.1 21.91"/><rect class="cls-1" x="152.82" y="40.78" width="24.53" height="18.87"/><path class="cls-1" d="M210.26,13V24.3c0,2.79.87,3.68,2,3.68s2-.87,2-3.68V13h2.73V23.84c0,4.44-1.74,6.54-4.73,6.54s-4.67-2.12-4.67-6.41V13Z"/><path class="cls-1" d="M219.63,21.23c0-1.4,0-2.4-.1-3.5h2.37l.13,1.46h.05A3.34,3.34,0,0,1,225,17.53c2.09,0,3.19,1.61,3.19,4.5v8.14h-2.73V22.28c0-1.23-.26-2.45-1.46-2.45-.66,0-1.27.51-1.53,1.53a4.61,4.61,0,0,0-.13,1.13v7.68h-2.73Z"/><path class="cls-1" d="M233.52,14.49A1.45,1.45,0,0,1,232,16.05a1.42,1.42,0,0,1-1.4-1.56,1.46,1.46,0,1,1,2.91,0Zm-2.81,15.68V17.73h2.73V30.17Z"/><path class="cls-1" d="M237.78,17.73,239,23.94c.18,1,.35,2.09.53,3.27h.05c.16-1.15.34-2.2.51-3.27l1.2-6.21H244l-3.29,12.44h-2.48L234.9,17.73Z"/><path class="cls-1" d="M247.3,24.68c0,2.78,1.33,3.55,2.78,3.55a5.36,5.36,0,0,0,2.23-.46l.38,2a8,8,0,0,1-3.11.58c-3.2,0-4.93-2.32-4.93-6.17,0-4.12,2-6.62,4.65-6.62s3.93,2.38,3.93,5.7a13.3,13.3,0,0,1-.08,1.45Zm3.4-1.94c0-2-.64-3.17-1.61-3.17-1.17,0-1.71,1.71-1.76,3.17Z"/><path class="cls-1" d="M255.19,21.23c0-1.14-.08-2.42-.1-3.5h2.37l.16,1.89h.07a3,3,0,0,1,2.53-2.09,3.48,3.48,0,0,1,.56,0v2.73a1.84,1.84,0,0,0-.56,0,2.45,2.45,0,0,0-2.2,2.15,5.66,5.66,0,0,0-.1,1.2v6.56h-2.73Z"/><path class="cls-1" d="M262,27.59a4.2,4.2,0,0,0,2.14.67,1.38,1.38,0,0,0,1.56-1.43c0-.77-.36-1.28-1.51-2-1.83-1.1-2.52-2.3-2.52-3.55a3.64,3.64,0,0,1,3.8-3.73,4.89,4.89,0,0,1,2.4.61l-.56,2a3.24,3.24,0,0,0-1.71-.54,1.28,1.28,0,0,0-1.41,1.31c0,.66.31,1.05,1.51,1.81,1.66,1,2.53,2.22,2.53,3.75,0,2.53-1.77,3.83-4.11,3.83a4.89,4.89,0,0,1-2.66-.71Z"/><path class="cls-1" d="M272.83,14.49a1.46,1.46,0,1,1-2.91,0,1.46,1.46,0,1,1,2.91,0ZM270,30.17V17.73h2.73V30.17Z"/><path class="cls-1" d="M283.61,12.5V26.8c0,1,.05,2.43.1,3.37h-2.35l-.15-1.48h-.08a3,3,0,0,1-2.58,1.69c-2.43,0-3.78-2.64-3.78-6.39,0-4.37,1.89-6.46,3.91-6.46a2.24,2.24,0,0,1,2.17,1.36h0V12.5Zm-2.71,10a4.14,4.14,0,0,0,0-.77c-.1-1-.67-1.86-1.48-1.86-1.38,0-1.87,1.94-1.87,4.16,0,2.5.67,4.11,1.81,4.11.52,0,1.15-.28,1.48-1.53a2.54,2.54,0,0,0,.11-.82Z"/><path class="cls-1" d="M293.69,27.34a21,21,0,0,0,.15,2.83h-2.45l-.15-1.28h-.05a3.06,3.06,0,0,1-2.63,1.49c-1.79,0-3.15-1.51-3.15-3.68,0-3.19,2.71-4.55,5.52-4.57V21.8c0-1.28-.51-2.2-1.86-2.2a4.26,4.26,0,0,0-2.33.69l-.51-1.86a6.84,6.84,0,0,1,3.42-.9c3.22,0,4,2.19,4,4.85ZM291,23.94c-1.07,0-3,.31-3,2.48,0,1.4.74,1.91,1.35,1.91a1.65,1.65,0,0,0,1.56-1.43,2.49,2.49,0,0,0,.08-.64Z"/><path class="cls-1" d="M304.57,12.5V26.8c0,1,.05,2.43.1,3.37h-2.35l-.15-1.48h-.08a3,3,0,0,1-2.58,1.69c-2.43,0-3.78-2.64-3.78-6.39,0-4.37,1.89-6.46,3.91-6.46a2.24,2.24,0,0,1,2.17,1.36h.05V12.5Zm-2.71,10a4.14,4.14,0,0,0-.05-.77c-.1-1-.67-1.86-1.48-1.86-1.38,0-1.87,1.94-1.87,4.16,0,2.5.67,4.11,1.81,4.11.51,0,1.15-.28,1.49-1.53a2.88,2.88,0,0,0,.1-.82Z"/><path class="cls-1" d="M210.87,39.74h-3.09v-2.5h8.94v2.5h-3.11V54.45h-2.74Z"/><path class="cls-1" d="M219.12,49c0,2.78,1.33,3.55,2.78,3.55a5.31,5.31,0,0,0,2.22-.46l.39,2a8.15,8.15,0,0,1-3.12.58c-3.19,0-4.93-2.32-4.93-6.17,0-4.12,2-6.62,4.65-6.62s3.93,2.38,3.93,5.7c0,.71,0,1.12-.07,1.45ZM222.51,47c0-2-.64-3.17-1.6-3.17-1.18,0-1.72,1.71-1.77,3.17Z"/><path class="cls-1" d="M233.54,54.2a5,5,0,0,1-2.09.4c-3,0-4.93-2.19-4.93-6.28,0-3.7,2.07-6.48,5.36-6.48a4.26,4.26,0,0,1,1.79.35l-.41,2.18a3.36,3.36,0,0,0-1.32-.29c-1.77,0-2.69,1.92-2.69,4.19,0,2.55,1,4.09,2.69,4.09a2.79,2.79,0,0,0,1.32-.28Z"/><path class="cls-1" d="M235,45.51c0-1.4-.06-2.4-.11-3.5h2.38l.13,1.46h0a3.33,3.33,0,0,1,2.94-1.66c2.09,0,3.18,1.61,3.18,4.5v8.14h-2.72V46.56c0-1.23-.26-2.45-1.46-2.45-.67,0-1.28.51-1.54,1.53a4.69,4.69,0,0,0-.12,1.13v7.68H235Z"/><path class="cls-1" d="M254.5,48.19c0,5-2.58,6.47-4.47,6.47-2.63,0-4.44-2.2-4.44-6.39,0-4.5,2.22-6.46,4.54-6.46C252.74,41.81,254.5,44.11,254.5,48.19Zm-6.18,0c0,2.09.36,4.34,1.81,4.34s1.67-2.47,1.67-4.34-.31-4.29-1.72-4.29S248.32,46.41,248.32,48.22Z"/><path class="cls-1" d="M256.54,36.78h2.73V54.45h-2.73Z"/><path class="cls-1" d="M270.33,48.19c0,5-2.58,6.47-4.47,6.47-2.63,0-4.44-2.2-4.44-6.39,0-4.5,2.22-6.46,4.54-6.46C268.57,41.81,270.33,44.11,270.33,48.19Zm-6.18,0c0,2.09.36,4.34,1.81,4.34s1.67-2.47,1.67-4.34-.32-4.29-1.72-4.29S264.15,46.41,264.15,48.22Zm5.08-11.29-2.63,3.53h-1.74l1.84-3.53Z"/><path class="cls-1" d="M280.74,53c0,2.94-.45,4.29-1.37,5.24a5,5,0,0,1-3.7,1.35,7.34,7.34,0,0,1-3-.59l.56-2.12a5.29,5.29,0,0,0,2.35.54c1.64,0,2.43-1,2.43-3.37v-1H278a2.54,2.54,0,0,1-2.3,1.35c-2.53,0-3.78-2.81-3.78-6.08,0-4.34,2-6.51,4.06-6.51a2.56,2.56,0,0,1,2.3,1.53h.05l.15-1.33h2.4c-.07,1-.13,2.25-.13,3.91ZM278,46.43a3.08,3.08,0,0,0-.13-.89c-.18-.69-.56-1.41-1.38-1.41-1.3,0-1.91,1.74-1.91,4.12,0,2.68.81,4,1.86,4,.51,0,1.1-.26,1.41-1.3a3,3,0,0,0,.15-1Z"/><path class="cls-1" d="M286,38.77a1.45,1.45,0,0,1-1.51,1.56,1.44,1.44,0,0,1-1.41-1.56,1.46,1.46,0,1,1,2.92,0Zm-2.81,15.68V42H286V54.45Z"/><path class="cls-1" d="M295,54.2a5.06,5.06,0,0,1-2.1.4c-3,0-4.92-2.19-4.92-6.28,0-3.7,2.07-6.48,5.36-6.48a4.29,4.29,0,0,1,1.79.35l-.41,2.18a3.42,3.42,0,0,0-1.33-.29c-1.76,0-2.68,1.92-2.68,4.19,0,2.55,1,4.09,2.68,4.09a2.83,2.83,0,0,0,1.33-.28Z"/><path class="cls-1" d="M304.26,51.62a19.43,19.43,0,0,0,.15,2.83H302l-.15-1.28h-.06a3.06,3.06,0,0,1-2.62,1.49c-1.79,0-3.15-1.51-3.15-3.68,0-3.19,2.71-4.55,5.52-4.57v-.34c0-1.27-.51-2.19-1.87-2.19a4.17,4.17,0,0,0-2.32.69l-.51-1.86a6.84,6.84,0,0,1,3.42-.9c3.22,0,4,2.19,4,4.85Zm-2.69-3.4c-1.07,0-3,.31-3,2.48,0,1.4.73,1.91,1.35,1.91a1.66,1.66,0,0,0,1.56-1.43,2.51,2.51,0,0,0,.07-.64Z"/><path class="cls-1" d="M223.65,60.6V74.9c0,1,0,2.43.11,3.37H221.4l-.15-1.48h-.08a2.92,2.92,0,0,1-2.57,1.68c-2.43,0-3.78-2.63-3.78-6.38,0-4.37,1.89-6.46,3.91-6.46A2.27,2.27,0,0,1,220.9,67h0V60.6Zm-2.7,10a4,4,0,0,0,0-.76c-.1-1-.67-1.87-1.49-1.87-1.38,0-1.86,2-1.86,4.17,0,2.5.66,4.11,1.81,4.11.51,0,1.15-.28,1.49-1.53a2.88,2.88,0,0,0,.1-.82Z"/><path class="cls-1" d="M228.32,72.78c0,2.78,1.33,3.55,2.79,3.55a5.38,5.38,0,0,0,2.22-.46l.38,2a7.93,7.93,0,0,1-3.12.58c-3.19,0-4.92-2.32-4.92-6.17,0-4.11,2-6.62,4.64-6.62s3.94,2.38,3.94,5.7a13.3,13.3,0,0,1-.08,1.45Zm3.4-1.94c0-2-.64-3.16-1.61-3.16-1.18,0-1.71,1.71-1.76,3.16Z"/><path class="cls-1" d="M240.5,61.31a14.88,14.88,0,0,1,3.21-.33,6,6,0,0,1,4.3,1.3A5,5,0,0,1,249.39,66a5.61,5.61,0,0,1-1.28,3.86A5.52,5.52,0,0,1,244,71.58h-.77v6.69h-2.7Zm2.7,8a2.36,2.36,0,0,0,.67.06c1.79,0,2.78-1.23,2.78-3.22,0-1.61-.66-3-2.5-3a3.51,3.51,0,0,0-1,.13Z"/><path class="cls-1" d="M252.83,72.78c0,2.78,1.33,3.55,2.78,3.55a5.31,5.31,0,0,0,2.22-.46l.39,2a8,8,0,0,1-3.12.58c-3.19,0-4.93-2.32-4.93-6.17,0-4.11,2-6.62,4.65-6.62s3.93,2.38,3.93,5.7c0,.71-.05,1.12-.07,1.45Zm3.4-1.94c0-2-.64-3.16-1.61-3.16-1.18,0-1.71,1.71-1.77,3.16Z"/><path class="cls-1" d="M260.72,69.33c0-1.14-.08-2.42-.11-3.49H263l.15,1.88h.08a2.94,2.94,0,0,1,2.53-2.09,2.68,2.68,0,0,1,.56.05v2.74a1.55,1.55,0,0,0-.56-.06,2.45,2.45,0,0,0-2.2,2.15,5,5,0,0,0-.1,1.19v6.57h-2.73Z"/><path class="cls-1" d="M269.63,72.78c0,2.78,1.33,3.55,2.78,3.55a5.31,5.31,0,0,0,2.22-.46l.38,2a7.88,7.88,0,0,1-3.11.58c-3.19,0-4.93-2.32-4.93-6.17,0-4.11,2-6.62,4.65-6.62s3.93,2.38,3.93,5.7c0,.71-.05,1.12-.07,1.45ZM273,70.84c0-2-.64-3.16-1.6-3.16-1.18,0-1.72,1.71-1.77,3.16Z"/><path class="cls-1" d="M280.33,62.59a1.46,1.46,0,0,1-1.51,1.56,1.57,1.57,0,1,1,1.51-1.56Zm-2.81,15.68V65.84h2.72V78.27Z"/><path class="cls-1" d="M282.75,69.33c0-1.14-.08-2.42-.1-3.49H285l.15,1.88h.08a3,3,0,0,1,2.53-2.09,2.68,2.68,0,0,1,.56.05v2.74a1.55,1.55,0,0,0-.56-.06,2.45,2.45,0,0,0-2.2,2.15,5.55,5.55,0,0,0-.1,1.19v6.57h-2.73Z"/><path class="cls-1" d="M297.22,75.44a19.29,19.29,0,0,0,.16,2.83h-2.46L294.77,77h0a3.06,3.06,0,0,1-2.63,1.47c-1.79,0-3.14-1.5-3.14-3.67,0-3.19,2.7-4.55,5.52-4.57V69.9c0-1.28-.52-2.2-1.87-2.2a4.17,4.17,0,0,0-2.32.69l-.51-1.87a6.93,6.93,0,0,1,3.42-.89c3.22,0,4,2.2,4,4.85ZM294.54,72c-1.07,0-3,.31-3,2.48,0,1.4.75,1.91,1.36,1.91A1.65,1.65,0,0,0,294.47,75a2.48,2.48,0,0,0,.07-.63Z"/><line class="cls-2" x1="326.03" x2="326.03" y2="91"/><path class="cls-1" d="M361,43l-.11-2.39a4,4,0,0,1-4,2.81,4.43,4.43,0,0,1-4.11-2.23q-1.32-2.22-1.32-7t1.38-6.83a4.94,4.94,0,0,1,4.45-2.12A4.77,4.77,0,0,1,361,26.71a5.62,5.62,0,0,1,1.34,3.95h-1.91a4.27,4.27,0,0,0-.88-2.74,2.89,2.89,0,0,0-2.32-1,2.94,2.94,0,0,0-2.86,1.77q-.86,1.76-.85,6.08a11.08,11.08,0,0,0,.91,5.14,3.19,3.19,0,0,0,5.37.37,6.66,6.66,0,0,0,.89-3.79v-.46c0-.11,0-.22,0-.31h-3.92V34h5.77v9Z"/><path class="cls-1" d="M371.25,38.64H373a5.33,5.33,0,0,1-1,3.51,3.61,3.61,0,0,1-2.92,1.21A3.36,3.36,0,0,1,366,41.73a9.94,9.94,0,0,1-1-5,10.84,10.84,0,0,1,1-5.3,3.81,3.81,0,0,1,6.12-.25,7.69,7.69,0,0,1,1,4.35c0,.31,0,.54,0,.69s0,.3,0,.43h-6.22v.58a8.16,8.16,0,0,0,.57,3.53,1.87,1.87,0,0,0,1.78,1.11,1.71,1.71,0,0,0,1.51-.83,4.09,4.09,0,0,0,.56-2.28Zm-4.42-3.49h4.4V34.8a5.49,5.49,0,0,0-.53-2.69,1.69,1.69,0,0,0-1.56-.9,1.88,1.88,0,0,0-1.74,1A6,6,0,0,0,366.83,35.15Z"/><path class="cls-1" d="M375.11,39.13h1.8a.35.35,0,0,0,0,.06,2.21,2.21,0,0,0,0,.37,2.08,2.08,0,0,0,.6,1.61,2.52,2.52,0,0,0,1.75.55,2.34,2.34,0,0,0,1.65-.56,2,2,0,0,0,.6-1.53c0-1-.79-1.79-2.35-2.33h-.05a7.59,7.59,0,0,1-3-1.63,3.52,3.52,0,0,1-.69-2.35,3.48,3.48,0,0,1,1-2.64,3.8,3.8,0,0,1,2.77-1,4,4,0,0,1,2.84.91,3.54,3.54,0,0,1,.95,2.68v.18h-1.72a2.7,2.7,0,0,0-.52-1.7,1.87,1.87,0,0,0-1.47-.54,2.24,2.24,0,0,0-1.59.5,1.94,1.94,0,0,0-.54,1.49,2.18,2.18,0,0,0,.14.79,1.39,1.39,0,0,0,.41.56,6.44,6.44,0,0,0,2,.9c.52.16.93.3,1.21.41a4.13,4.13,0,0,1,1.91,1.31,3.53,3.53,0,0,1,.57,2.1,4,4,0,0,1-1.11,3,4.49,4.49,0,0,1-3.19,1,3.82,3.82,0,0,1-2.87-1,4.14,4.14,0,0,1-1-3Z"/><path class="cls-1" d="M387.73,40.34a1.38,1.38,0,0,0,.3,1.06,2.41,2.41,0,0,0,1.39.25h.24l.16,0v1.58l-.44,0-.89,0a3,3,0,0,1-1.91-.51,1.9,1.9,0,0,1-.62-1.54V31.58h-1.8V30.09H386V26.64h1.76v3.45h2.1v1.49h-2.1Z"/><path class="cls-1" d="M391.31,28.06V25.72h1.86v2.34Zm0,15V30.09h1.86V43Z"/><path class="cls-1" d="M395.54,36.56a9.42,9.42,0,0,1,1.12-5.17,4.37,4.37,0,0,1,6.86,0,9.49,9.49,0,0,1,1.11,5.18,9.41,9.41,0,0,1-1.11,5.16,4.45,4.45,0,0,1-6.89,0A9.52,9.52,0,0,1,395.54,36.56Zm1.93,0a9.83,9.83,0,0,0,.6,4.08,2.28,2.28,0,0,0,4,0,9.88,9.88,0,0,0,.6-4.06,9.75,9.75,0,0,0-.6-4.06,2.28,2.28,0,0,0-4,0A9.79,9.79,0,0,0,397.47,36.56Zm1.34-7.85,1.91-3.06h2l-2.78,3.06Z"/><path class="cls-1" d="M407,43V30.09h1.69v1.6A3.27,3.27,0,0,1,410,30.28a3.81,3.81,0,0,1,2-.47,3,3,0,0,1,2.43.86,4.73,4.73,0,0,1,.72,3V43H413.3v-9.5a2.34,2.34,0,0,0-.45-1.57,1.74,1.74,0,0,0-1.37-.52,2.52,2.52,0,0,0-1.93.77,2.87,2.87,0,0,0-.71,2.06V43Z"/><path class="cls-1" d="M431.79,43H430.1V41.38a2.48,2.48,0,0,1-1,1.37,3.1,3.1,0,0,1-1.8.52,3.34,3.34,0,0,1-3.05-1.82,10.84,10.84,0,0,1-1.05-5.31,8.71,8.71,0,0,1,1.06-4.69,3.3,3.3,0,0,1,2.94-1.67,3.54,3.54,0,0,1,1.8.46,2,2,0,0,1,1,1.18v-5.7h1.82Zm-1.69-6.56a9.72,9.72,0,0,0-.56-3.94,1.94,1.94,0,0,0-1.89-1.11,2,2,0,0,0-1.88,1.2,8.72,8.72,0,0,0-.6,3.72,10.61,10.61,0,0,0,.57,4.07,1.93,1.93,0,0,0,1.84,1.26,2,2,0,0,0,1.93-1.19A9.81,9.81,0,0,0,430.1,36.45Z"/><path class="cls-1" d="M440.42,38.64h1.77a5.33,5.33,0,0,1-1.05,3.51,3.61,3.61,0,0,1-2.92,1.21,3.36,3.36,0,0,1-3.09-1.63,9.94,9.94,0,0,1-1-5,10.84,10.84,0,0,1,1-5.3,3.81,3.81,0,0,1,6.12-.25,7.69,7.69,0,0,1,1,4.35c0,.31,0,.54,0,.69s0,.3,0,.43H436v.58a8.35,8.35,0,0,0,.56,3.53,1.88,1.88,0,0,0,1.79,1.11,1.71,1.71,0,0,0,1.51-.83,4.09,4.09,0,0,0,.56-2.28ZM436,35.15h4.39V34.8a5.5,5.5,0,0,0-.52-2.69,1.7,1.7,0,0,0-1.56-.9,1.88,1.88,0,0,0-1.74,1A6,6,0,0,0,436,35.15Z"/><path class="cls-1" d="M444.61,43V25.72h1.79V43Z"/><path class="cls-1" d="M355.07,70.61V55.09h-4.42V53.32h10.54v1.77H357V70.61Z"/><path class="cls-1" d="M369.17,70.63l-.6.09-.47,0a1.51,1.51,0,0,1-1.2-.49,2.07,2.07,0,0,1-.47-1.37,3.35,3.35,0,0,1-1.2,1.52,3.31,3.31,0,0,1-1.87.53,2.7,2.7,0,0,1-2.18-.94,4.07,4.07,0,0,1-.78-2.66,4,4,0,0,1,.72-2.55,7.31,7.31,0,0,1,3.13-1.68h0c1.31-.44,2-1,2-1.55V60.36a1.4,1.4,0,0,0-.45-1.16,2.3,2.3,0,0,0-1.46-.37,1.85,1.85,0,0,0-1.43.51,2.16,2.16,0,0,0-.48,1.55v.22h-1.69a4,4,0,0,1,.94-2.88,3.93,3.93,0,0,1,2.88-.91,3.72,3.72,0,0,1,2.69.83,3.62,3.62,0,0,1,.84,2.65v7.55a1.17,1.17,0,0,0,.18.73.71.71,0,0,0,.59.22,1,1,0,0,0,.24,0h.05Zm-2.86-7a5.2,5.2,0,0,1-1.89,1l-.18.07a3.36,3.36,0,0,0-1.64,1,2.91,2.91,0,0,0-.38,1.63,2.31,2.31,0,0,0,.43,1.5,1.44,1.44,0,0,0,1.2.52,2.15,2.15,0,0,0,1.79-.85,3.65,3.65,0,0,0,.67-2.29Z"/><path class="cls-1" d="M371,70.61V53.32h1.8V70.61Z"/><path class="cls-1" d="M381.43,66.24h1.78a5.44,5.44,0,0,1-1,3.51A3.63,3.63,0,0,1,379.23,71a3.34,3.34,0,0,1-3.08-1.63,9.94,9.94,0,0,1-1-5,10.84,10.84,0,0,1,1-5.3,3.81,3.81,0,0,1,6.12-.25,7.69,7.69,0,0,1,1,4.35v.69c0,.16,0,.3,0,.43H377v.57a8.37,8.37,0,0,0,.56,3.54,1.88,1.88,0,0,0,1.79,1.11,1.72,1.72,0,0,0,1.51-.83,4.09,4.09,0,0,0,.55-2.28ZM377,62.75h4.39V62.4a5.5,5.5,0,0,0-.52-2.69,1.7,1.7,0,0,0-1.57-.9,1.86,1.86,0,0,0-1.73,1A6,6,0,0,0,377,62.75Z"/><path class="cls-1" d="M385.65,70.61V57.69h1.69v1.6a3.27,3.27,0,0,1,1.28-1.41,3.81,3.81,0,0,1,2-.47,3,3,0,0,1,2.43.86,4.73,4.73,0,0,1,.72,3v9.36h-1.82v-9.5a2.34,2.34,0,0,0-.45-1.57A1.68,1.68,0,0,0,390.1,59a2.5,2.5,0,0,0-1.92.77,2.85,2.85,0,0,0-.71,2.06v8.76Z"/><path class="cls-1" d="M398.53,67.94a1.39,1.39,0,0,0,.29,1.06,2.41,2.41,0,0,0,1.39.25h.24l.17,0v1.58l-.45,0-.89,0a3,3,0,0,1-1.9-.51,1.87,1.87,0,0,1-.63-1.54V59.18H395V57.69h1.79V54.24h1.77v3.45h2.1v1.49h-2.1Z"/><path class="cls-1" d="M401.75,64.16A9.42,9.42,0,0,1,402.87,59a3.81,3.81,0,0,1,3.42-1.67A3.84,3.84,0,0,1,409.73,59a9.49,9.49,0,0,1,1.11,5.18,9.51,9.51,0,0,1-1.1,5.16,4.46,4.46,0,0,1-6.9,0A9.52,9.52,0,0,1,401.75,64.16Zm1.93,0a9.83,9.83,0,0,0,.6,4.08,2.27,2.27,0,0,0,4,0,9.79,9.79,0,0,0,.6-4,9.8,9.8,0,0,0-.6-4.07,2.06,2.06,0,0,0-2-1.18,2.08,2.08,0,0,0-2,1.17A9.79,9.79,0,0,0,403.68,64.16Z"/><path class="cls-1" d="M419.11,70.61V53.32h2v7.13h6.45V53.32h2V70.61h-2V62.19h-6.45v8.42Z"/><path class="cls-1" d="M438.71,70.61V68.93a3,3,0,0,1-1.22,1.5,3.68,3.68,0,0,1-2,.53,3.09,3.09,0,0,1-2.36-.8,3.6,3.6,0,0,1-.74-2.54V57.69h1.88v10a1.83,1.83,0,0,0,.4,1.24,1.45,1.45,0,0,0,1.12.43,2.58,2.58,0,0,0,2-.81,3.22,3.22,0,0,0,.73-2.26V57.69h1.83V70.61Z"/><path class="cls-1" d="M443.25,70.61V57.69h1.67v1.56a3.53,3.53,0,0,1,1.39-1.4,4.15,4.15,0,0,1,2-.47,3.11,3.11,0,0,1,1.81.49,2.48,2.48,0,0,1,1,1.4,3.65,3.65,0,0,1,3.36-1.89,3.35,3.35,0,0,1,2.41.82,3.2,3.2,0,0,1,.83,2.36v10h-1.86V61.68a3.87,3.87,0,0,0-.41-2.12A1.63,1.63,0,0,0,454,59a2.5,2.5,0,0,0-2.62,2.62v9h-1.86v-9a3.57,3.57,0,0,0-.44-2,1.65,1.65,0,0,0-1.43-.59,2.69,2.69,0,0,0-1.92.71,2.42,2.42,0,0,0-.74,1.82v9.08Z"/><path class="cls-1" d="M468.81,70.63l-.6.09-.47,0a1.51,1.51,0,0,1-1.2-.49,2.07,2.07,0,0,1-.47-1.37,3.35,3.35,0,0,1-1.2,1.52,3.31,3.31,0,0,1-1.87.53,2.7,2.7,0,0,1-2.18-.94,4.07,4.07,0,0,1-.78-2.66,4,4,0,0,1,.72-2.55,7.25,7.25,0,0,1,3.13-1.68h0c1.32-.44,2-1,2-1.55V60.36a1.38,1.38,0,0,0-.46-1.16,2.25,2.25,0,0,0-1.45-.37,1.89,1.89,0,0,0-1.44.51,2.21,2.21,0,0,0-.47,1.55v.22h-1.7a4,4,0,0,1,.95-2.88,3.89,3.89,0,0,1,2.87-.91,3.69,3.69,0,0,1,2.69.83,3.58,3.58,0,0,1,.85,2.65v7.55a1.17,1.17,0,0,0,.18.73.69.69,0,0,0,.58.22,1,1,0,0,0,.25,0h.05Zm-2.87-7a5,5,0,0,1-1.88,1l-.18.07a3.31,3.31,0,0,0-1.64,1,2.83,2.83,0,0,0-.38,1.63,2.37,2.37,0,0,0,.42,1.5,1.47,1.47,0,0,0,1.2.52,2.17,2.17,0,0,0,1.8-.85,3.64,3.64,0,0,0,.66-2.29Z"/><path class="cls-1" d="M470.66,70.61V57.69h1.7v1.6a3.21,3.21,0,0,1,1.28-1.41,3.77,3.77,0,0,1,2-.47,3,3,0,0,1,2.43.86,4.66,4.66,0,0,1,.73,3v9.36h-1.82v-9.5a2.34,2.34,0,0,0-.45-1.57,1.71,1.71,0,0,0-1.37-.52,2.52,2.52,0,0,0-1.93.77,2.9,2.9,0,0,0-.71,2.06v8.76Z"/><path class="cls-1" d="M481.1,64.16A9.51,9.51,0,0,1,482.22,59a4.37,4.37,0,0,1,6.86,0,9.49,9.49,0,0,1,1.11,5.18,9.51,9.51,0,0,1-1.1,5.16,4.46,4.46,0,0,1-6.9,0A9.61,9.61,0,0,1,481.1,64.16Zm1.94,0a9.86,9.86,0,0,0,.59,4.08,2.28,2.28,0,0,0,4,0,9.79,9.79,0,0,0,.6-4,9.8,9.8,0,0,0-.6-4.07,2.29,2.29,0,0,0-4,0A9.79,9.79,0,0,0,483,64.16Z"/></g></g></svg>